<?xml version="1.0" encoding="UTF-8"?>
<svg xmlns="http://www.w3.org/2000/svg" width="176" height="34" viewBox="0 0 176 34" fill="none">
  <path d="M87.9827 17.2576C86.7118 22.2557 86.7367 26.0722 87.308 28.2357C87.5043 28.9854 87.8149 29.9743 87.4936 30.4313C87.1723 30.8883 85.4908 31.0668 83.6307 30.1135C81.7707 29.1603 80.3712 27.0254 80.8782 22.4664C81.0888 20.9241 81.0103 21.4989 81.096 20.5885C81.2852 18.5714 80.664 17.7324 78.3827 19.1069C76.1014 20.4814 73.181 22.2843 68.3221 27.4931C66.2871 29.678 64.9876 31.6344 63.7095 31.6701C63.1734 31.6711 62.6482 31.5187 62.1959 31.2309C61.7435 30.943 61.383 30.5318 61.1569 30.0457C60.2893 28.2392 60.6749 26.3899 61.7031 22.5128C62.7313 18.6356 63.1847 17.6003 61.7566 17.6003C60.1073 17.6003 54.9734 19.8923 51.9852 24.0551C48.865 28.3999 48.865 31.97 46.6122 32.1378C45.709 32.2021 44.6772 31.5523 44.1131 30.2742C43.5491 28.9961 44.1131 26.3471 45.0378 22.9519C45.9313 19.7403 46.9955 16.5786 48.2259 13.4804C48.5829 12.645 49.3255 11.9488 50.725 12.5129C51.4571 12.8133 52.0617 13.3593 52.435 14.057C52.8083 14.7548 52.927 15.5607 52.7707 16.3365C54.0238 15.2654 57.2155 13.234 60.6892 11.8488C63.9023 10.5743 67.4331 10.0638 68.7505 11.7382C70.0679 13.4125 69.8215 15.8831 68.5684 18.907C73.8629 13.9909 77.8507 11.6275 81.3102 10.3387C83.6879 9.44972 86.1976 9.78174 87.4543 11.2312C88.8431 12.8342 88.3968 14.937 87.9827 17.2576Z" fill="#EB3300"></path>
  <path d="M104.712 8.63933C97.3219 8.87138 91.0849 14.3943 90.7886 20.5671C90.4923 26.7398 96.1152 30.16 101.499 29.8886C106.883 29.6173 113.88 26.4185 115.512 19.6388C117.393 11.8274 110.596 8.45368 104.712 8.63933ZM109.071 19.6067C107.829 22.9519 103.82 24.787 100.839 24.4978C97.5611 24.1765 96.9114 22.0415 97.6861 19.3068C98.4608 16.5721 100.978 13.7125 104.641 13.5625C107.922 13.4268 110.431 15.9509 109.071 19.6067Z" fill="#FF9425"></path>
  <path d="M43.2241 12.2173C44.1202 12.8671 42.5529 14.9949 40.011 24.6306C39.0614 28.2578 38.965 29.9215 38.9793 31.0568C38.9935 32.1921 37.9546 32.6776 36.8372 32.8097C35.9839 32.9097 34.8486 32.8633 34.2024 32.4527C33.5563 32.0422 32.9636 31.2317 33.2278 29.2396C33.7026 25.5981 35.5591 19.1862 37.1549 14.7664C37.9903 12.4565 38.8186 12.1138 40.3288 11.9638C41.6354 11.8282 42.6172 11.7746 43.2241 12.2173ZM44.5129 5.46266C43.6117 5.46901 42.7125 5.55021 41.8246 5.70543C40.7072 5.89107 40.1752 6.23381 39.6076 7.70469C39.04 9.17558 38.8936 10.343 40.1645 10.5108C41.4355 10.6786 43.1849 10.65 44.0631 9.96457C44.9414 9.27911 45.3126 7.92961 45.609 7.01209C45.9053 6.09457 45.8517 5.45909 44.5129 5.46266Z" fill="#2774AE"></path>
  <path d="M29.6253 11.9563C28.3722 11.9849 25.3161 12.1884 21.6746 12.449C23.3811 6.6297 24.802 3.32021 25.1126 2.24203C25.206 1.93988 25.2577 1.62638 25.2662 1.31023C25.2662 0.353441 24.5986 0.0285609 23.5311 0C23.3347 0 23.1277 0 22.9099 0C21.1962 0.0892529 19.0435 0.94608 17.7404 4.43408C16.5622 7.57578 15.6411 10.4283 14.9164 12.9488C9.37916 13.3772 4.07397 13.8056 2.421 13.9306C-0.253011 14.1305 -0.460078 15.5693 0.585966 17.565C1.63201 19.5607 3.95615 19.8498 7.6655 19.5499C9.18637 19.425 11.2106 19.2393 13.4098 19.018C12.9859 20.9146 12.6877 22.8371 12.5173 24.773C12.484 25.0586 12.459 25.3371 12.4423 25.6084C12.4245 25.8798 12.4138 26.1475 12.4102 26.4046C12.3459 30.0247 13.5455 32.3345 15.1592 33.1592C16.7729 33.9839 18.2973 33.9339 18.8471 33.6233C18.9154 33.5879 18.9751 33.5379 19.022 33.477C19.1031 33.3488 19.1464 33.2003 19.147 33.0486C19.123 32.5488 19.0391 32.0538 18.8971 31.5741C18.8757 31.4741 18.8542 31.3742 18.8364 31.2813C18.6567 30.3013 18.5635 29.3074 18.5579 28.311C18.5401 26.1297 18.8971 23.4128 19.836 19.4107C19.9217 19.0537 20.011 18.6717 20.1073 18.2861C21.8353 18.0755 23.4954 17.8577 24.9306 17.6435C29.0326 17.0223 35.5874 15.2265 35.8837 13.7699C36.18 12.3133 33.3882 11.8742 29.6253 11.9563Z" fill="#563D82"></path>
  <path d="M134.026 12.6166C134.026 13.8519 133.669 14.7944 132.973 15.4727C132.277 16.1511 131.256 16.4545 129.928 16.4545H127.803V8.95728H130.156C131.381 8.95728 132.334 9.28216 133.012 9.92835C133.358 10.2818 133.627 10.7032 133.802 11.166C133.976 11.6288 134.053 12.1228 134.026 12.6166ZM132.373 12.6559C132.373 11.047 131.659 10.2413 130.231 10.2389H129.385V15.1264H130.067C131.607 15.1264 132.376 14.3029 132.373 12.6559Z" fill="#747D87"></path>
  <path d="M136.897 16.4369V8.9397H138.485V16.4369H136.897Z" fill="#747D87"></path>
  <path d="M144.537 12.2243H147.511V16.1157C147.067 16.2635 146.612 16.3746 146.151 16.4478C145.718 16.5094 145.281 16.5404 144.844 16.5406C143.713 16.5406 142.848 16.2086 142.248 15.5445C141.652 14.8769 141.352 13.9237 141.352 12.6884C141.352 11.4532 141.709 10.5464 142.395 9.85733C143.08 9.1683 144.048 8.83985 145.276 8.83985C146.041 8.83925 146.798 8.99601 147.5 9.30039L146.972 10.5749C146.443 10.3048 145.858 10.1641 145.265 10.1644C144.956 10.1509 144.647 10.206 144.361 10.3257C144.075 10.4455 143.82 10.6269 143.612 10.857C143.177 11.3774 142.955 12.0432 142.991 12.7206C142.947 13.3799 143.123 14.0351 143.491 14.5842C143.665 14.7998 143.888 14.9706 144.141 15.0824C144.394 15.1942 144.671 15.2437 144.947 15.2268C145.287 15.2266 145.625 15.1931 145.958 15.1268V13.5488H144.53L144.537 12.2243Z" fill="#747D87"></path>
  <path d="M150.61 16.4369V8.9397H152.202V16.4369H150.61Z" fill="#747D87"></path>
  <path d="M158.296 16.4371H156.722V10.2679H154.683V8.93628H160.349V10.2679H158.31L158.296 16.4371Z" fill="#747D87"></path>
  <path d="M167.396 16.4368L166.85 14.6518H164.115L163.572 16.4368H161.859L164.508 8.90747H166.45L169.11 16.4368H167.396ZM166.471 13.3201C165.967 11.6993 165.683 10.7842 165.621 10.5747C165.557 10.3605 165.514 10.1927 165.486 10.0713C165.372 10.5069 165.05 11.5922 164.515 13.3201H166.471Z" fill="#747D87"></path>
  <path d="M171.359 16.4369V8.9397H172.951V15.1267H176V16.4369H171.359Z" fill="#747D87"></path>
  <path d="M127.803 21.5457H130.138C131.202 21.5457 131.975 21.698 132.455 22.0026C132.69 22.1559 132.88 22.369 133.006 22.6199C133.131 22.8709 133.188 23.1507 133.169 23.4307C133.186 23.8231 133.074 24.2103 132.852 24.5338C132.754 24.6725 132.63 24.7899 132.485 24.8789C132.341 24.9679 132.18 25.0266 132.013 25.0515V25.1051C132.417 25.1679 132.784 25.3792 133.041 25.6977C133.267 26.0411 133.378 26.4473 133.359 26.858C133.376 27.1669 133.318 27.4755 133.19 27.7571C133.062 28.0388 132.867 28.2852 132.623 28.4752C132.035 28.8863 131.326 29.0887 130.61 29.05H127.803V21.5457ZM129.392 24.5196H130.303C130.628 24.545 130.953 24.4743 131.238 24.3161C131.338 24.2396 131.417 24.1388 131.468 24.0233C131.519 23.9077 131.539 23.7812 131.527 23.6556C131.537 23.5336 131.513 23.4113 131.457 23.3023C131.402 23.1932 131.317 23.1017 131.213 23.038C130.902 22.8926 130.559 22.8288 130.217 22.8523H129.378L129.392 24.5196ZM129.392 25.7798V27.7362H130.431C130.773 27.7627 131.114 27.6734 131.399 27.4828C131.507 27.3883 131.592 27.2696 131.647 27.1363C131.701 27.003 131.724 26.8588 131.713 26.7152C131.713 26.0916 131.268 25.7798 130.377 25.7798H129.392Z" fill="#747D87"></path>
  <path d="M140.77 29.0503L140.224 27.2652H137.489L136.946 29.0503H135.233L137.882 21.5173H139.824L142.484 29.0503H140.77ZM139.845 25.93C139.342 24.3127 139.06 23.3952 138.996 23.1846C138.931 22.9739 138.885 22.8061 138.86 22.6812C138.746 23.1203 138.424 24.2021 137.889 25.93H139.845Z" fill="#747D87"></path>
  <path d="M151.395 29.0497H149.374L146.111 23.3732H146.065C146.129 24.3776 146.161 25.0916 146.161 25.5153V29.0461H144.733V21.5489H146.74L149.999 27.1682H150.035C149.98 26.1924 149.954 25.5034 149.956 25.1011V21.531H151.384L151.395 29.0497Z" fill="#747D87"></path>
  <path d="M160.649 29.05H158.828L156.861 25.8869L156.19 26.3689V29.05H154.597V21.5528H156.19V24.9873L156.814 24.1054L158.864 21.5457H160.631L158.014 24.8659L160.649 29.05Z" fill="#747D87"></path>
</svg>
