<?xml version="1.0" encoding="UTF-8"?>
<svg id="Layer_2" data-name="Layer 2" xmlns="http://www.w3.org/2000/svg" viewBox="0 0 512 512">
  <defs>
    <style>
      .cls-1 {
        fill: #fff;
      }

      .cls-2 {
        letter-spacing: -.01em;
      }

      .cls-2, .cls-3 {
        font-family: SourceSansRoman-Regular, 'Source Sans Variable';
        font-variation-settings: 'wght' 400;
      }

      .cls-4 {
        fill: #474747;
        font-size: 72px;
      }

      .cls-5 {
        font-family: SourceSansRoman-Bold, 'Source Sans Variable';
        font-variation-settings: 'wght' 700;
        font-weight: 700;
      }

      .cls-6 {
        fill: #f28c3e;
      }

      .cls-7 {
        fill: #2e3d76;
      }
    </style>
  </defs>
  <g id="Layer_1-2" data-name="Layer 1">
    <rect class="cls-1" width="512" height="512"/>
    <g>
      <polygon class="cls-6" points="296.05 230.9 296.05 310.53 406 254.76 406 286.67 264.59 358.39 264.59 214.95 406 143.22 406 175.13 296.05 230.9"/>
      <polygon class="cls-7" points="247.46 214.95 247.46 358.39 106.05 286.67 106.05 143.22 137.51 159.18 137.51 270.71 216 310.53 216 198.99 247.46 214.95"/>
      <polygon class="cls-6" points="221.78 134.43 212.76 130.11 255.97 109.45 286.25 123.92 299.19 130.11 255.97 150.78 221.78 134.43"/>
      <polygon class="cls-7" points="255.97 169.93 289.34 185.88 255.97 201.84 106 130.11 202.6 83.92 235.96 99.87 172.72 130.11 217.89 151.71 217.89 151.72 255.97 169.93"/>
      <polygon class="cls-7" points="405.95 130.11 309.35 176.31 275.99 160.35 339.23 130.11 301.09 111.87 255.97 90.3 222.61 74.35 255.97 58.39 405.95 130.11"/>
    </g>
    <text class="cls-4" transform="translate(113.87 448.83)"><tspan class="cls-5" x="0" y="0">UNI</tspan><tspan class="cls-2" x="117.43" y="0">C</tspan><tspan class="cls-3" x="157.54" y="0">UBE</tspan></text>
  </g>
</svg>